<svg width="104" height="33" viewBox="0 0 104 33" fill="none" xmlns="http://www.w3.org/2000/svg">
<g clip-path="url(#clip0)">
<path fill-rule="evenodd" clip-rule="evenodd" d="M16.1166 0.5C25.0254 0.5 32.2331 7.65556 32.2331 16.5C32.2331 25.3444 25.0254 32.5 16.1166 32.5C7.20769 32.5 0 25.3444 0 16.5C0 14.0778 0.537219 11.7667 1.52212 9.72222C1.61166 10.2556 1.74596 10.7889 1.9698 11.2778C2.32795 12.1222 2.8204 12.8556 3.46954 13.5C4.09629 14.1222 4.85735 14.6333 5.70795 14.9889C6.51378 15.3222 7.40914 15.5 8.32689 15.5H9.71471H10.0729V15.1444V12.4556V12.1H9.71471H8.32689C7.85683 12.1 7.40914 12.0111 7.02861 11.8333C6.60331 11.6556 6.22278 11.4111 5.90941 11.1C5.59603 10.7889 5.32742 10.4111 5.14835 9.98889C4.99166 9.58889 4.87974 9.16667 4.87974 8.72222V8.7V8.67778C4.87974 8.23333 4.96927 7.78889 5.14835 7.41111C5.32742 6.98889 5.57365 6.61111 5.88702 6.3C6.2004 5.98889 6.58093 5.72222 7.00623 5.56667C7.40914 5.41111 7.85683 5.3 8.30451 5.3C8.77457 5.3 9.19987 5.38889 9.60279 5.56667C10.0281 5.74444 10.4086 5.98889 10.722 6.3C11.0354 6.61111 11.304 6.98889 11.4607 7.41111C11.6174 7.81111 11.7293 8.25556 11.7293 8.7V13.8111V18.9222C11.7293 19.8333 11.9084 20.7222 12.2441 21.5222C12.6023 22.3667 13.0947 23.1 13.7438 23.7444C14.3706 24.3667 15.1317 24.8778 15.9823 25.2333C16.7881 25.5667 17.6835 25.7444 18.6012 25.7444C19.519 25.7444 20.4143 25.5667 21.2201 25.2333C22.0484 24.8778 22.8094 24.3889 23.4586 23.7444C24.0853 23.1222 24.6001 22.3667 24.9583 21.5222C25.2493 20.8333 25.4284 20.0778 25.4731 19.2778H25.4955V18.9222V18.7889V18.7C25.4731 17.8556 25.2941 17.0778 24.9807 16.3222C24.6225 15.5 24.1301 14.7444 23.4809 14.1C22.8542 13.4778 22.0931 12.9667 21.2425 12.6111C20.4367 12.2778 19.5413 12.1 18.6236 12.1H17.2358H16.8776V12.4556V15.1444V15.5H17.2358H18.6236C19.0937 15.5 19.5413 15.5889 19.9219 15.7667C20.3472 15.9444 20.7277 16.1889 21.0411 16.5222C21.3545 16.8333 21.6231 17.2111 21.8021 17.6333C21.9588 18.0333 22.0707 18.4556 22.0707 18.9V18.9222V18.9444C22.0707 19.3889 21.9812 19.8333 21.8021 20.2111C21.6231 20.6333 21.3768 21.0111 21.0635 21.3222C20.7501 21.6333 20.3695 21.9 19.9443 22.0556C19.5413 22.2111 19.0937 22.3222 18.646 22.3222C18.1983 22.3222 17.7506 22.2333 17.3477 22.0556C16.9224 21.8778 16.5419 21.6333 16.2285 21.3222C15.9151 21.0111 15.6465 20.6333 15.4898 20.2111C15.3331 19.8111 15.2212 19.3667 15.2212 18.9222V13.8111V8.7C15.2212 7.78889 15.0421 6.9 14.7064 6.1C14.3482 5.25556 13.8558 4.52222 13.2066 3.87778C12.5799 3.25556 11.8188 2.74444 10.9682 2.38889C10.4982 2.18889 9.98332 2.05556 9.46848 1.96667C11.4607 1.01111 13.7215 0.5 16.1166 0.5Z" fill="white"/>
<path d="M71.7859 20.856C73.599 20.856 75.0764 19.6782 75.0764 17.3004C75.0764 15.056 73.5095 13.7671 71.5173 13.7671C70.6219 13.7671 69.928 13.9671 69.2341 14.4115V19.7004C69.7713 20.2782 70.6891 20.856 71.7859 20.856ZM66.0332 12.1893C67.1748 11.4782 69.3013 10.8115 71.3606 10.8115C75.7703 10.8115 78.5235 13.4337 78.5235 17.5226C78.5235 21.1893 76.2851 23.856 72.5694 23.856C71.2263 23.856 70.04 23.3893 69.2565 22.7671V29.1004H66.0332V12.1893Z" fill="white"/>
<path d="M43.8282 13.7889C45.6413 13.7889 47.1186 14.9667 47.1186 17.3444C47.1186 19.5889 45.5517 20.8778 43.5595 20.8778C42.6642 20.8778 41.9703 20.6778 41.2764 20.2333V14.9667C41.8136 14.3667 42.7313 13.7889 43.8282 13.7889ZM38.0754 22.4778C39.217 23.1889 41.3435 23.8556 43.4029 23.8556C47.8125 23.8556 50.5658 21.2333 50.5658 17.1444C50.5658 13.4778 48.3274 10.8111 44.6116 10.8111C43.2686 10.8111 42.0822 11.2778 41.2988 11.9V6.5H38.0978V22.4778H38.0754Z" fill="white"/>
<path d="M58.3779 13.4557C60.2134 13.4557 61.2654 14.6335 61.243 16.1668H55.0874C55.4232 14.5446 56.4528 13.4557 58.3779 13.4557ZM62.2727 20.2113C61.534 20.7224 60.3477 21.1891 58.9375 21.1891C56.9677 21.1891 55.4679 20.1668 55.1769 18.278H64.2425C64.3768 17.8113 64.444 17.3446 64.444 16.5668C64.444 13.078 61.7355 10.7891 58.5122 10.7891C54.3935 10.7891 51.8865 13.7002 51.8865 17.3224C51.8865 21.2557 54.595 23.8557 58.6241 23.8557C60.3701 23.8557 62.1608 23.3668 63.4143 22.3002L62.2727 20.2113Z" fill="white"/>
<path d="M80.3367 23.5448H83.5376V17.5003V15.1892V14.2781H88.865V11.1003H86.4923C85.1045 11.1003 83.9181 12.0337 83.5376 13.3003V12.3003V11.0781H80.3367V23.5448Z" fill="white"/>
<path fill-rule="evenodd" clip-rule="evenodd" d="M93.2075 17.3224C93.2075 19.3668 94.5281 20.878 96.5875 20.878C98.6468 20.878 99.9675 19.3668 99.9675 17.3224C99.9675 15.278 98.6468 13.7668 96.5875 13.7668C94.5505 13.7668 93.2075 15.3002 93.2075 17.3224ZM89.7827 17.3224C89.7827 21.0557 92.4464 23.8557 96.6099 23.8557C100.751 23.8557 103.437 21.0557 103.437 17.3224C103.437 13.5891 100.773 10.7891 96.6099 10.7891C92.4464 10.8113 89.7827 13.5891 89.7827 17.3224Z" fill="white"/>
</g>
<defs>
<clipPath id="clip0">
<rect width="104" height="32" fill="white" transform="translate(0 0.5)"/>
</clipPath>
</defs>
</svg>
