<svg width="83" height="84" viewBox="0 0 83 84" fill="none" xmlns="http://www.w3.org/2000/svg">
<path d="M83 42.2124C83 31.2059 78.6277 20.6502 70.8449 12.8675C63.0622 5.08471 52.5065 0.712403 41.5 0.712402C30.4935 0.712402 19.9378 5.08471 12.1551 12.8675C4.37231 20.6502 1.66193e-06 31.2059 0 42.2124H1.66C1.66 31.6462 5.85742 21.5127 13.3289 14.0413C20.8003 6.56982 30.9338 2.3724 41.5 2.3724C52.0662 2.3724 62.1997 6.56982 69.6711 14.0413C77.1426 21.5127 81.34 31.6462 81.34 42.2124H83Z" fill="url(#paint0_linear)"/>
<path fill-rule="evenodd" clip-rule="evenodd" d="M41 28.3791C33.6362 28.3791 27.6667 34.3486 27.6667 41.7124C27.6667 49.0762 33.6362 55.0458 41 55.0458C48.3638 55.0458 54.3334 49.0762 54.3334 41.7124C54.3334 34.3486 48.3638 28.3791 41 28.3791ZM24.3334 41.7124C24.3334 32.5077 31.7953 25.0458 41 25.0458C50.2048 25.0458 57.6667 32.5077 57.6667 41.7124C57.6667 50.9172 50.2048 58.3791 41 58.3791C31.7953 58.3791 24.3334 50.9172 24.3334 41.7124Z" fill="url(#paint1_linear)"/>
<path fill-rule="evenodd" clip-rule="evenodd" d="M40.34 41.153C40.8905 40.8459 41.5257 40.7255 42.1504 40.8097L41.9446 42.3361L42.1504 40.8097L45.7158 41.2903L45.4931 42.9421L45.7158 41.2903C46.1194 41.3447 46.5072 41.4831 46.8541 41.6965C46.8541 41.6965 46.8541 41.6965 46.8541 41.6965L55.3364 46.9134C56.1204 47.3956 56.3651 48.4222 55.8829 49.2062C55.4007 49.9903 54.3741 50.2349 53.5901 49.7527L45.183 44.582L42.0143 44.1549L40.1126 48.4219L42.8637 51.3975C43.1744 51.7336 43.4017 52.1381 43.5271 52.5783C43.6525 53.0185 43.6726 53.4821 43.5857 53.9315L42.9873 57.0246C42.8125 57.9284 41.9382 58.5193 41.0345 58.3444C40.1307 58.1696 39.5398 57.2953 39.7147 56.3916L40.2729 53.5055L37.4787 50.4831L38.6496 49.4005L37.4787 50.4831C37.0913 50.0641 36.8354 49.5408 36.7425 48.9778C36.6496 48.4148 36.7239 47.837 36.9562 47.3158C36.9562 47.3158 36.9562 47.3158 36.9562 47.3158L39.0966 42.513L40.619 43.1914L39.0966 42.513C39.3532 41.9372 39.7895 41.4601 40.34 41.153ZM40.4161 53.6604C40.416 53.6602 40.4159 53.6601 40.4158 53.66L40.4161 53.6604Z" fill="url(#paint2_linear)"/>
<path fill-rule="evenodd" clip-rule="evenodd" d="M31.7979 28.8659C32.6457 29.2245 33.0423 30.2024 32.6838 31.0502L31.351 34.2018L33.0082 38.6249L36.1339 39.2967C36.5675 39.3899 36.974 39.5807 37.3228 39.8546C37.6715 40.1285 37.9531 40.4784 38.1463 40.8775L38.1463 40.8775L38.6271 41.8708H40.4648C41.3852 41.8708 42.1314 42.617 42.1314 43.5375C42.1314 44.4579 41.3852 45.2041 40.4648 45.2041H38.3659C37.8179 45.2041 37.281 45.0497 36.8166 44.7586C36.3523 44.4675 35.9794 44.0515 35.7406 43.5582L37.211 42.8465L35.7406 43.5582L35.2346 42.5129L32.0851 41.836C31.607 41.7332 31.1625 41.5119 30.7923 41.1925C30.4222 40.873 30.1383 40.4656 29.9667 40.0078L28.1713 35.2159C27.9093 34.5168 27.9254 33.744 28.2162 33.0565L29.6137 29.7518C29.9722 28.904 30.9501 28.5074 31.7979 28.8659Z" fill="url(#paint3_linear)"/>
<path fill-rule="evenodd" clip-rule="evenodd" d="M44.0092 25.7492C44.8129 25.3005 45.8282 25.5883 46.2769 26.392L47.7353 29.0043C48.057 29.5805 48.1737 30.2487 48.0665 30.8999C47.9593 31.5511 47.6344 32.1466 47.145 32.5893L42.9402 36.392L42.9401 36.392C42.7736 36.5426 42.5903 36.6734 42.3938 36.782L42.3938 36.782L40.481 37.8383C40.0493 38.0767 39.5642 38.2017 39.071 38.2017H36.0124L34.8187 41.0356C34.4613 41.8839 33.484 42.2819 32.6357 41.9246C31.7874 41.5672 31.3894 40.5899 31.7467 39.7416L33.0479 36.6528C33.2707 36.1239 33.6445 35.6725 34.1226 35.3551C34.6008 35.0377 35.1619 34.8684 35.7358 34.8684H38.9636L40.7401 33.8874L44.6631 30.3395L43.3664 28.0169C42.9177 27.2132 43.2055 26.1979 44.0092 25.7492Z" fill="url(#paint4_linear)"/>
<defs>
<linearGradient id="paint0_linear" x1="1.04122" y1="61.8098" x2="83.0371" y2="61.697" gradientUnits="userSpaceOnUse">
<stop stop-color="#DCAE4D"/>
<stop offset="1" stop-color="#D40F3E"/>
</linearGradient>
<linearGradient id="paint1_linear" x1="24.7515" y1="49.5829" x2="57.6816" y2="49.5376" gradientUnits="userSpaceOnUse">
<stop stop-color="#DCAE4D"/>
<stop offset="1" stop-color="#D40F3E"/>
</linearGradient>
<linearGradient id="paint2_linear" x1="36.9473" y1="53.7329" x2="56.1388" y2="53.7038" gradientUnits="userSpaceOnUse">
<stop stop-color="#DCAE4D"/>
<stop offset="1" stop-color="#D40F3E"/>
</linearGradient>
<linearGradient id="paint3_linear" x1="28.1633" y1="40.8579" x2="42.1378" y2="40.8413" gradientUnits="userSpaceOnUse">
<stop stop-color="#DCAE4D"/>
<stop offset="1" stop-color="#D40F3E"/>
</linearGradient>
<linearGradient id="paint4_linear" x1="31.8225" y1="37.6968" x2="48.1127" y2="37.6744" gradientUnits="userSpaceOnUse">
<stop stop-color="#DCAE4D"/>
<stop offset="1" stop-color="#D40F3E"/>
</linearGradient>
</defs>
</svg>
