<svg width="652" height="205" viewBox="0 0 652 205" fill="none" xmlns="http://www.w3.org/2000/svg">
<path d="M567.362 86.9344V139.692L614.021 116.063V63.3055L567.362 86.9344Z" fill="url(#paint0_linear)"/>
<path d="M567.365 39.6919L520.722 63.3056L567.365 86.9345L614.024 63.3056L567.365 39.6919Z" fill="url(#paint1_linear)"/>
<path d="M567.365 86.9344V139.692L520.722 116.063V63.3055L567.365 86.9344Z" fill="#5C5A57" fill-opacity="0.1"/>
<path d="M406.293 85.9344V138.692L452.952 115.063V62.3055L406.293 85.9344Z" fill="url(#paint2_linear)"/>
<path d="M406.296 38.6919L359.653 62.3056L406.296 85.9345L452.955 62.3056L406.296 38.6919Z" fill="url(#paint3_linear)"/>
<path d="M406.296 85.9344V138.692L359.653 115.063V62.3055L406.296 85.9344Z" fill="#5C5A57" fill-opacity="0.1"/>
<path d="M84.1672 86.9346V139.692L130.817 116.078V63.321L84.1672 86.9346Z" fill="url(#paint4_linear)"/>
<path d="M84.1638 39.6919L37.5144 63.3208L84.1638 86.9345L130.813 63.3208L84.1638 39.6919Z" fill="url(#paint5_linear)"/>
<path d="M84.1638 86.9346V139.692L37.5144 116.078V63.321L84.1638 86.9346Z" fill="#DCAE4D"/>
<path d="M246.206 85.9344V138.692L292.865 115.063V62.3055L246.206 85.9344Z" fill="url(#paint6_linear)"/>
<path d="M246.209 38.6919L199.566 62.3056L246.209 85.9345L292.868 62.3056L246.209 38.6919Z" fill="url(#paint7_linear)"/>
<path d="M246.209 85.9344V138.692L199.566 115.063V62.3055L246.209 85.9344Z" fill="#5C5A57" fill-opacity="0.1"/>
<path opacity="0.15" d="M566.999 156.651L520.349 180.408L566.999 204.164L613.654 180.408L566.999 156.651Z" fill="#5C5A57" fill-opacity="0.29"/>
<path opacity="0.15" d="M405.92 156.651L359.269 180.408L405.92 204.164L452.575 180.408L405.92 156.651Z" fill="#5C5A57" fill-opacity="0.29"/>
<path opacity="0.1" d="M84.5394 156.463L37.8843 180.219L84.5394 203.98L131.19 180.219L84.5394 156.463Z" fill="url(#paint8_linear)"/>
<path opacity="0.15" d="M244.842 156.403L198.191 180.159L244.842 203.916L291.497 180.159L244.842 156.403Z" fill="#5C5A57" fill-opacity="0.29"/>
<path opacity="0.5" d="M4 102.505V45.0129L84.5394 4L165.079 45.0129L164.302 136.623L244.842 177.636L325.381 136.623V45.0129L405.92 4L486.46 45.0129V136.623L566.999 177.636L647.539 136.623V90.8156" stroke="#F9F9F9" stroke-width="2" stroke-miterlimit="10" stroke-linecap="round" stroke-dasharray="2 20"/>
<path opacity="0.5" d="M4 102.505V45.0129L84.5394 4L165.079 45.0129L164.302 136.623L244.842 177.636L325.381 136.623V45.0129L405.92 4L486.46 45.0129V136.623L566.999 177.636L647.539 136.623V90.8156" stroke="#F9F9F9" stroke-width="7" stroke-miterlimit="10" stroke-linecap="round" stroke-dasharray="5 150"/>
<path d="M56.1672 107.557V105.47L59.3272 106.661V92.806L56.113 91.2201V89.2251L62.6227 91.2477V108.366L65.7556 110.366V112.444L56.1672 107.557Z" fill="#EAEAEF"/>
<path d="M215.647 107.539V105.291L221.94 101.517C222.508 101.167 223.043 100.763 223.538 100.313C223.883 100.016 224.157 99.6446 224.341 99.2251C224.525 98.8056 224.613 98.3492 224.599 97.8901C224.585 96.9884 224.329 96.1078 223.859 95.3435C223.348 94.4865 222.603 93.7997 221.715 93.3668C220.724 92.8612 219.972 92.7907 219.457 93.1554C218.943 93.5201 218.678 94.2678 218.663 95.3987L215.435 93.753V93.661C215.355 92.6835 215.612 91.708 216.162 90.9029C216.425 90.5755 216.755 90.3108 217.13 90.1273C217.504 89.9439 217.913 89.8462 218.329 89.8411C219.536 89.8451 220.723 90.1614 221.778 90.7604C222.997 91.3673 224.109 92.1749 225.069 93.1508C225.947 94.0367 226.665 95.0729 227.19 96.2123C227.676 97.2427 227.932 98.3698 227.94 99.5128C227.954 100.19 227.812 100.86 227.525 101.471C227.213 102.067 226.784 102.591 226.265 103.011C225.604 103.552 224.898 104.035 224.157 104.454L219.859 106.992L219.886 107.075L225.651 110.012L225.85 108.077L228.509 109.456V114.103L215.647 107.539Z" fill="#EAEAEF"/>
<path d="M381.634 110.904C380.441 110.306 379.343 109.532 378.374 108.605C377.457 107.725 376.693 106.691 376.117 105.548C375.574 104.511 375.301 103.35 375.323 102.174L375.35 102.11L378.559 103.746C378.562 104.35 378.691 104.945 378.939 105.493C379.203 106.083 379.565 106.623 380.009 107.088C380.484 107.59 381.042 108.004 381.656 108.311C382.636 108.808 383.403 108.927 383.963 108.66C384.523 108.394 384.803 107.741 384.803 106.711C384.818 105.732 384.543 104.771 384.013 103.953C383.383 103.067 382.538 102.362 381.561 101.908L379.395 100.804V98.2165L381.616 99.3473C382.122 99.6469 382.692 99.8158 383.277 99.8392C383.467 99.8407 383.654 99.7909 383.819 99.6948C383.984 99.5987 384.121 99.4597 384.216 99.2921C384.436 98.8504 384.539 98.3574 384.514 97.8625C384.524 96.9419 384.272 96.0379 383.787 95.2607C383.257 94.4515 382.52 93.8046 381.656 93.3898C381.19 93.1255 380.668 92.9804 380.135 92.9669C379.943 92.9617 379.753 93.0003 379.578 93.0798C379.403 93.1594 379.248 93.2779 379.124 93.4266C378.856 93.7997 378.726 94.2573 378.758 94.7183L375.535 93.0772L375.508 92.9807C375.467 92.557 375.511 92.1293 375.636 91.7233C375.762 91.3172 375.967 90.9412 376.239 90.6179C376.525 90.3334 376.866 90.1138 377.241 89.9735C377.616 89.8333 378.016 89.7756 378.415 89.8043C379.541 89.8612 380.639 90.1754 381.629 90.7237C383.403 91.5942 384.95 92.8795 386.143 94.4747C387.232 95.8966 387.827 97.6456 387.836 99.4485C387.856 99.8272 387.801 100.206 387.674 100.563C387.548 100.92 387.353 101.247 387.1 101.526C386.807 101.8 386.458 102.005 386.078 102.125C385.698 102.246 385.296 102.28 384.902 102.225C385.911 103.055 386.74 104.088 387.34 105.259C387.843 106.244 388.113 107.334 388.13 108.444C388.13 109.64 387.851 110.527 387.295 111.106C386.992 111.403 386.629 111.63 386.231 111.77C385.834 111.911 385.411 111.962 384.992 111.92C383.815 111.828 382.67 111.482 381.634 110.904Z" fill="#EAEAEF"/>
<path d="M541.905 110.449V108.376L544.008 109.042V106.9L535.82 102.712L535.702 100.915L543.914 91.8453L547.327 93.5829V106.206L549.71 107.419V109.801L547.327 108.592V110.729L549.417 112.2V114.273L541.905 110.449ZM538.971 101.949L544.008 104.514V96.5295L543.927 96.4606L543.638 96.9478L538.971 101.949Z" fill="#EAEAEF"/>
<defs>
<linearGradient id="paint0_linear" x1="623.997" y1="108.872" x2="569.875" y2="97.1789" gradientUnits="userSpaceOnUse">
<stop offset="0.35" stop-color="#5C5A57" stop-opacity="0.1"/>
<stop offset="1" stop-color="white" stop-opacity="0.1"/>
</linearGradient>
<linearGradient id="paint1_linear" x1="130840" y1="58351.7" x2="125623" y2="56099.4" gradientUnits="userSpaceOnUse">
<stop stop-color="#5C5A57" stop-opacity="0.29"/>
<stop offset="0.614583" stop-color="white" stop-opacity="0.11"/>
</linearGradient>
<linearGradient id="paint2_linear" x1="462.928" y1="107.872" x2="408.806" y2="96.1789" gradientUnits="userSpaceOnUse">
<stop offset="0.35" stop-color="#5C5A57" stop-opacity="0.1"/>
<stop offset="1" stop-color="white" stop-opacity="0.1"/>
</linearGradient>
<linearGradient id="paint3_linear" x1="130679" y1="58350.7" x2="125462" y2="56098.4" gradientUnits="userSpaceOnUse">
<stop stop-color="#5C5A57" stop-opacity="0.29"/>
<stop offset="0.614583" stop-color="white" stop-opacity="0.11"/>
</linearGradient>
<linearGradient id="paint4_linear" x1="118.372" y1="127.641" x2="95.5079" y2="74.0801" gradientUnits="userSpaceOnUse">
<stop stop-color="#FAE637"/>
<stop offset="0.83" stop-color="#DCAE4D"/>
</linearGradient>
<linearGradient id="paint5_linear" x1="24.3924" y1="49.046" x2="137.595" y2="75.4188" gradientUnits="userSpaceOnUse">
<stop stop-color="white"/>
<stop offset="0.53" stop-color="#FAE637"/>
<stop offset="1" stop-color="#DCAE4D"/>
</linearGradient>
<linearGradient id="paint6_linear" x1="302.841" y1="107.872" x2="248.718" y2="96.179" gradientUnits="userSpaceOnUse">
<stop offset="0.35" stop-color="#5C5A57" stop-opacity="0.1"/>
<stop offset="1" stop-color="white" stop-opacity="0.1"/>
</linearGradient>
<linearGradient id="paint7_linear" x1="130519" y1="58350.7" x2="125302" y2="56098.4" gradientUnits="userSpaceOnUse">
<stop stop-color="#5C5A57" stop-opacity="0.29"/>
<stop offset="0.614583" stop-color="white" stop-opacity="0.11"/>
</linearGradient>
<linearGradient id="paint8_linear" x1="106.298" y1="196.482" x2="101.157" y2="157.767" gradientUnits="userSpaceOnUse">
<stop stop-color="#FAE637"/>
<stop offset="0.83" stop-color="#DCAE4D"/>
</linearGradient>
</defs>
</svg>
