<svg width="40" height="41" viewBox="0 0 40 41" fill="none" xmlns="http://www.w3.org/2000/svg">
<path fill-rule="evenodd" clip-rule="evenodd" d="M6.66671 9.87906V31.5457H33.3334V9.87906H6.66671ZM3.33337 9.4624C3.33337 7.85157 4.63921 6.54573 6.25004 6.54573H33.75C35.3609 6.54573 36.6667 7.85157 36.6667 9.4624V31.9624C36.6667 33.5732 35.3609 34.8791 33.75 34.8791H6.25004C4.63921 34.8791 3.33337 33.5732 3.33337 31.9624V9.4624Z" fill="url(#paint0_linear)"/>
<path fill-rule="evenodd" clip-rule="evenodd" d="M13.75 12.7957C14.6705 12.7957 15.4167 13.5419 15.4167 14.4624C15.4167 15.678 15.8996 16.8438 16.7591 17.7033C17.6187 18.5628 18.7845 19.0457 20 19.0457C21.2156 19.0457 22.3814 18.5628 23.2409 17.7033C24.1005 16.8438 24.5834 15.678 24.5834 14.4624C24.5834 13.5419 25.3296 12.7957 26.25 12.7957C27.1705 12.7957 27.9167 13.5419 27.9167 14.4624C27.9167 16.562 27.0826 18.5757 25.598 20.0603C24.1133 21.545 22.0997 22.3791 20 22.3791C17.9004 22.3791 15.8868 21.545 14.4021 20.0603C12.9174 18.5757 12.0834 16.562 12.0834 14.4624C12.0834 13.5419 12.8296 12.7957 13.75 12.7957Z" fill="url(#paint1_linear)"/>
<defs>
<linearGradient id="paint0_linear" x1="3.75153" y1="27.4023" x2="36.6816" y2="27.349" gradientUnits="userSpaceOnUse">
<stop stop-color="#DCAE4D"/>
<stop offset="1" stop-color="#D40F3E"/>
</linearGradient>
<linearGradient id="paint1_linear" x1="12.282" y1="19.8502" x2="27.9237" y2="19.8146" gradientUnits="userSpaceOnUse">
<stop stop-color="#DCAE4D"/>
<stop offset="1" stop-color="#D40F3E"/>
</linearGradient>
</defs>
</svg>
