<svg width="83" height="84" viewBox="0 0 83 84" fill="none" xmlns="http://www.w3.org/2000/svg">
<path d="M83 42.2124C83 31.2059 78.6277 20.6502 70.8449 12.8675C63.0622 5.08471 52.5065 0.712403 41.5 0.712402C30.4935 0.712402 19.9378 5.08471 12.1551 12.8675C4.37231 20.6502 1.66193e-06 31.2059 0 42.2124H1.66C1.66 31.6462 5.85742 21.5127 13.3289 14.0413C20.8003 6.56982 30.9338 2.3724 41.5 2.3724C52.0662 2.3724 62.1997 6.56982 69.6711 14.0413C77.1426 21.5127 81.34 31.6462 81.34 42.2124H83Z" fill="url(#paint0_linear)"/>
<path d="M27.6666 46.7124H50.775C51.0916 46.7123 51.4017 46.6219 51.669 46.4519C51.9362 46.282 52.1494 46.0394 52.2837 45.7526C52.418 45.4658 52.4678 45.1466 52.4273 44.8325C52.3868 44.5185 52.2576 44.2224 52.055 43.9791L46 36.7124L52.055 29.4457C52.2576 29.2024 52.3868 28.9064 52.4273 28.5923C52.4678 28.2782 52.418 27.959 52.2837 27.6722C52.1494 27.3854 51.9362 27.1428 51.669 26.9729C51.4017 26.8029 51.0916 26.7125 50.775 26.7124H27.6666V56.7124" stroke="url(#paint1_linear)" stroke-width="5" stroke-linecap="round" stroke-linejoin="round"/>
<defs>
<linearGradient id="paint0_linear" x1="1.04122" y1="61.8098" x2="83.0371" y2="61.697" gradientUnits="userSpaceOnUse">
<stop stop-color="#DCAE4D"/>
<stop offset="1" stop-color="#D40F3E"/>
</linearGradient>
<linearGradient id="paint1_linear" x1="27.9774" y1="48.7958" x2="52.4521" y2="48.768" gradientUnits="userSpaceOnUse">
<stop stop-color="#DCAE4D"/>
<stop offset="1" stop-color="#D40F3E"/>
</linearGradient>
</defs>
</svg>
