<svg width="40" height="41" viewBox="0 0 40 41" fill="none" xmlns="http://www.w3.org/2000/svg">
<path fill-rule="evenodd" clip-rule="evenodd" d="M28.2866 22.1907C29.1961 22.3327 29.8182 23.1851 29.6763 24.0945C29.3559 26.1461 28.3921 28.0429 26.9239 29.5111C25.4556 30.9794 23.5588 31.9432 21.5073 32.2635C20.5978 32.4055 19.7454 31.7834 19.6034 30.8739C19.4614 29.9645 20.0836 29.1121 20.9931 28.9701C22.3467 28.7588 23.5981 28.1229 24.5668 27.1541C25.5356 26.1854 26.1715 24.9339 26.3828 23.5803C26.5248 22.6709 27.3772 22.0487 28.2866 22.1907Z" fill="url(#paint0_linear)"/>
<path fill-rule="evenodd" clip-rule="evenodd" d="M21.8049 2.44185C22.4612 1.83018 23.4839 1.84775 24.1188 2.4816C28.6492 7.00462 34.7917 13.6999 34.7917 22.5874C34.7917 26.5104 33.2333 30.2727 30.4593 33.0467C27.6854 35.8207 23.923 37.3791 20 37.3791C16.077 37.3791 12.3147 35.8207 9.54075 33.0467C6.76678 30.2727 5.20837 26.5104 5.20837 22.5874C5.20837 18.2114 7.40406 13.7158 9.86678 10.0032C10.3645 9.25284 11.3682 9.03349 12.1336 9.5078L12.1338 9.50791C12.1495 9.51763 12.165 9.52761 12.1803 9.53784L16.8229 12.6329L21.4363 2.94465C21.5264 2.75541 21.6514 2.58488 21.8048 2.44198L21.8049 2.44185ZM23.4192 6.53368L19.0048 15.804C18.7969 16.2406 18.4095 16.5654 17.9433 16.694C17.4771 16.8227 16.978 16.7424 16.5755 16.4742L11.7503 13.2573C9.85626 16.3979 8.54171 19.6598 8.54171 22.5874C8.54171 25.6263 9.74892 28.5408 11.8978 30.6897C14.0466 32.8385 16.9611 34.0457 20 34.0457C23.039 34.0457 25.9535 32.8385 28.1023 30.6897C30.2512 28.5408 31.4584 25.6263 31.4584 22.5874C31.4584 16.1039 27.4976 10.8283 23.4192 6.53368Z" fill="url(#paint1_linear)"/>
<defs>
<linearGradient id="paint0_linear" x1="19.7101" y1="29.615" x2="29.701" y2="29.6012" gradientUnits="userSpaceOnUse">
<stop stop-color="#DCAE4D"/>
<stop offset="1" stop-color="#D40F3E"/>
</linearGradient>
<linearGradient id="paint1_linear" x1="5.57949" y1="28.0415" x2="34.805" y2="28.0079" gradientUnits="userSpaceOnUse">
<stop stop-color="#DCAE4D"/>
<stop offset="1" stop-color="#D40F3E"/>
</linearGradient>
</defs>
</svg>
