<svg width="36" height="41" viewBox="0 0 36 41" fill="none" xmlns="http://www.w3.org/2000/svg">
<g style="mix-blend-mode:screen">
<g style="mix-blend-mode:screen" opacity="0.2">
<path d="M17.9609 40.6628L0.0546875 30.6145V10.5178L17.9609 20.5662V40.6628Z" fill="url(#paint0_linear)"/>
</g>
<g style="mix-blend-mode:screen" opacity="0.5">
<path d="M35.8655 10.5178L17.9609 20.5662V40.6628L35.8655 30.6145V10.5178Z" fill="url(#paint1_linear)"/>
</g>
<path opacity="0.5" d="M17.9609 0.455811L0.0546875 10.5041V30.6008L17.9609 20.5525V0.455811Z" fill="url(#paint2_linear)"/>
<g style="mix-blend-mode:multiply" opacity="0.05">
<path d="M0.0546875 10.5178V30.6145L17.9609 40.6628V20.5662V40.6628L35.8655 30.6145V10.5178V30.6145L17.9609 40.6628L0.0546875 30.6145V10.5178Z" fill="black"/>
</g>
<g style="mix-blend-mode:screen" opacity="0.5">
<path d="M17.9609 0.468994L35.8655 10.5173L17.9609 20.5657L0.0546875 10.5173L17.9609 0.468994Z" fill="url(#paint3_linear)"/>
</g>
<g style="mix-blend-mode:screen" opacity="0.28">
<path d="M17.9609 20.5659L35.8655 30.6142L17.9609 40.6626L0.0546875 30.6142L17.9609 20.5659Z" fill="url(#paint4_linear)"/>
</g>
</g>
<defs>
<linearGradient id="paint0_linear" x1="13.184" y1="35.9062" x2="3.98512" y2="14.9502" gradientUnits="userSpaceOnUse">
<stop stop-color="#FAE637"/>
<stop offset="0.83" stop-color="#DCAE4D"/>
</linearGradient>
<linearGradient id="paint1_linear" x1="31.089" y1="35.9062" x2="21.8895" y2="14.9508" gradientUnits="userSpaceOnUse">
<stop stop-color="#FAE637"/>
<stop offset="0.83" stop-color="#DCAE4D"/>
</linearGradient>
<linearGradient id="paint2_linear" x1="13.184" y1="25.8442" x2="3.98512" y2="4.88816" gradientUnits="userSpaceOnUse">
<stop stop-color="#FAE637"/>
<stop offset="0.83" stop-color="#DCAE4D"/>
</linearGradient>
<linearGradient id="paint3_linear" x1="26.3121" y1="17.3946" x2="23.925" y2="1.08122" gradientUnits="userSpaceOnUse">
<stop stop-color="#FAE637"/>
<stop offset="0.83" stop-color="#DCAE4D"/>
</linearGradient>
<linearGradient id="paint4_linear" x1="26.3121" y1="37.4915" x2="23.925" y2="21.1781" gradientUnits="userSpaceOnUse">
<stop stop-color="#FAE637"/>
<stop offset="0.83" stop-color="#DCAE4D"/>
</linearGradient>
</defs>
</svg>
