<svg width="983" height="305" viewBox="0 0 983 305" fill="none" xmlns="http://www.w3.org/2000/svg">
<path d="M2.64 53.22C2.64 69.38 16.32 73.3 39.28 73.3C60 73.3 74.16 70.26 74.16 55.3C74.16 41.14 60.48 39.94 38.4 38.74C22.08 37.78 18.72 36.98 18.72 32.66C18.72 28.5 22.08 27.14 36.24 27.14C51.2 27.14 57.36 28.66 57.36 34.82H71.76C71.76 20.98 58.96 15.7 37.84 15.7C16.88 15.7 4.32 19.62 4.32 31.94C4.32 44.5 14 48.34 38.4 49.46C56.56 50.34 59.76 51.14 59.76 55.78C59.76 60.18 55.2 61.86 40.08 61.86C21.84 61.86 17.04 59.14 17.04 53.22H2.64ZM125.417 36.82V25.38H103.097V11.7L89.3369 15.62V25.38H76.9369V36.82H89.3369V58.34C89.3369 68.74 97.1769 73.3 109.337 73.3C115.657 73.3 120.857 72.9 125.417 72.1V61.06C119.897 61.86 117.497 61.86 113.177 61.86C104.857 61.86 103.097 59.54 103.097 50.42V36.82H125.417ZM168.858 24.58C160.058 24.58 151.738 27.06 144.698 33.38V25.38H131.018V72.5H144.698V44.26C153.018 37.78 161.818 36.02 169.498 36.02C173.498 36.02 177.098 36.5 181.578 37.62V26.18C178.378 25.38 174.458 24.58 168.858 24.58ZM215.128 24.58C205.288 24.58 195.848 26.34 186.248 29.46L191.128 39.46C200.807 36.58 208.328 36.02 214.488 36.02C220.888 36.02 232.408 36.74 232.408 45.7C226.248 43.62 218.808 42.34 210.728 42.34C195.768 42.34 182.327 46.18 182.327 58.42C182.327 69.06 190.568 73.3 203.768 73.3C214.888 73.3 224.088 70.74 232.408 66.66V72.5H246.168V48.74C246.008 30.9 234.808 24.58 215.128 24.58ZM232.408 57.86C225.368 60.9 215.128 63.22 207.688 63.22C200.568 63.22 196.008 62.82 196.008 57.86C196.008 53.06 202.168 51.3 212.408 51.3C221.128 51.3 227.608 52.66 232.408 54.18V57.86ZM296.745 36.82V25.38H274.425V11.7L260.665 15.62V25.38H248.265V36.82H260.665V58.34C260.665 68.74 268.505 73.3 280.665 73.3C286.985 73.3 292.185 72.9 296.745 72.1V61.06C291.225 61.86 288.825 61.86 284.505 61.86C276.185 61.86 274.425 59.54 274.425 50.42V36.82H296.745ZM331.98 62.18C322.86 62.18 315.66 59.7 314.14 52.18H365.02C365.02 30.74 350.7 24.58 332.78 24.58C313.66 24.58 300.14 31.62 300.14 48.98C300.14 66.26 314.06 73.3 331.98 73.3C349.42 73.3 361.1 67.62 364.22 55.62H350.62C347.18 60.42 341.42 62.18 331.98 62.18ZM332.7 34.98C341.34 34.98 348.06 36.82 350.38 43.46H314.62C316.78 36.82 323.34 34.98 332.7 34.98ZM420.957 25.38V32.98C416.237 27.7 408.317 24.58 397.117 24.58C380.957 24.58 369.437 31.62 369.437 48.26C369.437 64.9 380.957 71.94 397.117 71.94C408.237 71.94 416.157 68.82 420.957 63.54C420.397 75.62 415.117 81.06 400.957 81.06C390.557 81.06 379.997 78.74 374.477 77.7V88.74C379.037 89.94 390.317 92.5 403.997 92.5C421.837 92.5 434.717 84.18 434.717 64.98V25.38H420.957ZM402.077 60.5C389.197 60.5 383.117 56.9 383.117 48.26C383.117 39.62 389.197 36.02 402.077 36.02C414.957 36.02 420.957 39.62 420.957 48.26C420.957 56.9 414.957 60.5 402.077 60.5ZM492.338 25.38L473.938 64.26L453.778 25.38H438.577L462.978 72.5H470.018L460.498 92.5H475.618L507.458 25.38H492.338ZM507.112 61.78V72.5H511.832L507.752 88.26H514.312L520.792 72.5V61.78H507.112ZM601.421 24.58C591.261 24.58 583.021 27.38 577.901 32.74V8.5H564.221V72.5H577.901V65.14C583.021 70.5 591.261 73.3 601.421 73.3C616.541 73.3 629.501 66.98 629.501 48.98C629.501 30.98 616.541 24.58 601.421 24.58ZM596.861 61.86C584.621 61.86 577.901 58.26 577.901 48.98C577.901 39.62 584.621 36.02 596.861 36.02C609.101 36.02 615.741 39.62 615.741 48.98C615.741 58.26 609.101 61.86 596.861 61.86ZM665.44 24.58C655.6 24.58 646.16 26.34 636.56 29.46L641.44 39.46C651.12 36.58 658.64 36.02 664.8 36.02C671.2 36.02 682.72 36.74 682.72 45.7C676.56 43.62 669.12 42.34 661.04 42.34C646.08 42.34 632.64 46.18 632.64 58.42C632.64 69.06 640.88 73.3 654.08 73.3C665.2 73.3 674.4 70.74 682.72 66.66V72.5H696.48V48.74C696.32 30.9 685.12 24.58 665.44 24.58ZM682.72 57.86C675.68 60.9 665.44 63.22 658 63.22C650.88 63.22 646.32 62.82 646.32 57.86C646.32 53.06 652.48 51.3 662.72 51.3C671.44 51.3 677.92 52.66 682.72 54.18V57.86ZM747.058 36.82V25.38H724.738V11.7L710.978 15.62V25.38H698.577V36.82H710.978V58.34C710.978 68.74 718.818 73.3 730.978 73.3C737.298 73.3 742.498 72.9 747.058 72.1V61.06C741.538 61.86 739.138 61.86 734.818 61.86C726.498 61.86 724.738 59.54 724.738 50.42V36.82H747.058ZM798.933 36.82V25.38H776.613V11.7L762.853 15.62V25.38H750.452V36.82H762.853V58.34C762.853 68.74 770.693 73.3 782.853 73.3C789.173 73.3 794.373 72.9 798.933 72.1V61.06C793.413 61.86 791.013 61.86 786.693 61.86C778.373 61.86 776.613 59.54 776.613 50.42V36.82H798.933ZM804.534 8.5V72.5H818.214V8.5H804.534ZM855.261 62.18C846.141 62.18 838.941 59.7 837.421 52.18H888.301C888.301 30.74 873.981 24.58 856.061 24.58C836.941 24.58 823.421 31.62 823.421 48.98C823.421 66.26 837.341 73.3 855.261 73.3C872.701 73.3 884.381 67.62 887.501 55.62H873.901C870.461 60.42 864.701 62.18 855.261 62.18ZM855.981 34.98C864.621 34.98 871.341 36.82 873.661 43.46H837.901C840.061 36.82 846.621 34.98 855.981 34.98Z" fill="white"/>
<path d="M555.289 176.5H571.209L542.249 120.5H522.809L493.929 176.5H509.769L515.769 164.58H549.289L555.289 176.5ZM521.129 153.86L532.569 131.14L543.929 153.86H521.129ZM632.411 120.5V162.58L594.171 120.5H574.651V176.5H589.051V134.5L627.211 176.5H646.811V120.5H632.411ZM693.885 120.5H653.245V176.5H693.885C708.365 176.5 721.085 167.54 721.085 148.5C721.085 129.46 708.365 120.5 693.885 120.5ZM688.445 164.42H667.645V132.58H688.445C699.325 132.58 706.685 134.9 706.685 148.5C706.685 162.1 699.325 164.42 688.445 164.42Z" fill="url(#paint0_linear)"/>
<path d="M391.799 224.5H347.799V280.5H362.199V265.54H391.799C404.519 265.54 413.239 257.54 413.239 245.06C413.239 232.58 404.519 224.5 391.799 224.5ZM387.799 253.46H362.199V236.58H387.799C392.119 236.58 398.839 236.58 398.839 245.06C398.839 253.46 392.119 253.46 387.799 253.46ZM432.824 268.42V224.5H418.424V280.5H476.024V268.42H432.824ZM541.328 280.5H557.248L528.288 224.5H508.848L479.968 280.5H495.808L501.808 268.58H535.328L541.328 280.5ZM507.168 257.86L518.608 235.14L529.968 257.86H507.168ZM571.492 262.1V280.5H585.892V262.1L617.572 224.5H600.212L578.692 250.02L557.172 224.5H539.812L571.492 262.1ZM686.379 241.3C686.379 227.38 675.099 223.7 655.819 223.7C637.259 223.7 624.139 227.86 624.139 246.5H638.539C638.539 237.62 644.219 235.78 656.619 235.78C669.019 235.78 671.979 237.78 671.979 242.42C671.979 255.14 622.859 249.94 622.859 273.22V280.5H685.579V268.42H643.019C646.539 257.3 686.379 262.98 686.379 241.3ZM751.687 235.94V224.5H692.487V280.5H751.687V269.06H706.887V257.7H751.687V247.3H706.887V235.94H751.687ZM817.5 280.5H833.42L804.46 224.5H785.02L756.14 280.5H771.98L777.98 268.58H811.5L817.5 280.5ZM783.34 257.86L794.78 235.14L806.14 257.86H783.34ZM902.302 245.06C902.302 232.58 893.582 224.5 880.862 224.5H836.862V280.5H851.262V265.54H874.462L883.502 280.5H900.462L890.142 263.86C897.662 260.9 902.302 254.18 902.302 245.06ZM851.262 236.58H876.862C881.182 236.58 887.902 236.58 887.902 245.06C887.902 253.46 881.182 253.46 876.862 253.46H851.262V236.58ZM964.778 224.5V266.58L926.538 224.5H907.018V280.5H921.418V238.5L959.578 280.5H979.178V224.5H964.778Z" fill="url(#paint1_linear)"/>
<path fill-rule="evenodd" clip-rule="evenodd" d="M134.923 190.64L141.004 233.5L147.094 190.584L190 184.496L147.144 178.415L141.002 135.5L134.868 178.363L92 184.498L134.923 190.64Z" fill="#27D1AA"/>
<path fill-rule="evenodd" clip-rule="evenodd" d="M205.838 237.7L209.498 263.5L213.164 237.668L239 234.002L213.195 230.34L209.497 204.5L205.803 230.31L180 234.003L205.838 237.7Z" fill="#2D9CDB"/>
<path fill-rule="evenodd" clip-rule="evenodd" d="M901.89 21.6322L903.999 36.5L906.111 21.6134L921 19.5009L906.129 17.3909L903.999 2.5L901.87 17.3735L887 19.5015L901.89 21.6322Z" fill="#C379F6"/>
<defs>
<linearGradient id="paint0_linear" x1="493.923" y1="175.167" x2="724.102" y2="174.398" gradientUnits="userSpaceOnUse">
<stop stop-color="#DCAE4D"/>
<stop offset="1" stop-color="#D40F3E"/>
</linearGradient>
<linearGradient id="paint1_linear" x1="352.016" y1="279.167" x2="983.234" y2="273.386" gradientUnits="userSpaceOnUse">
<stop stop-color="#DCAE4D"/>
<stop offset="1" stop-color="#D40F3E"/>
</linearGradient>
</defs>
</svg>
