<svg width="83" height="84" viewBox="0 0 83 84" fill="none" xmlns="http://www.w3.org/2000/svg">
<path d="M83 42.2124C83 31.2059 78.6277 20.6502 70.8449 12.8675C63.0622 5.08471 52.5065 0.712403 41.5 0.712402C30.4935 0.712402 19.9378 5.08471 12.1551 12.8675C4.37231 20.6502 1.66193e-06 31.2059 0 42.2124H1.66C1.66 31.6462 5.85742 21.5127 13.3289 14.0413C20.8003 6.56982 30.9338 2.3724 41.5 2.3724C52.0662 2.3724 62.1997 6.56982 69.6711 14.0413C77.1426 21.5127 81.34 31.6462 81.34 42.2124H83Z" fill="url(#paint0_linear)"/>
<path fill-rule="evenodd" clip-rule="evenodd" d="M47.6667 30.0457H34.3334C33.4129 30.0457 32.6667 30.7919 32.6667 31.7124V38.3791C32.6667 42.9814 36.3977 46.7124 41 46.7124C45.6024 46.7124 49.3334 42.9814 49.3334 38.3791V31.7124C49.3334 30.7919 48.5872 30.0457 47.6667 30.0457ZM34.3334 26.7124C31.572 26.7124 29.3334 28.951 29.3334 31.7124V38.3791C29.3334 44.8224 34.5567 50.0457 41 50.0457C47.4434 50.0457 52.6667 44.8224 52.6667 38.3791V31.7124C52.6667 28.951 50.4281 26.7124 47.6667 26.7124H34.3334Z" fill="url(#paint1_linear)"/>
<path fill-rule="evenodd" clip-rule="evenodd" d="M22.6666 35.0458C22.6666 32.2844 24.9052 30.0458 27.6666 30.0458H32.6666V43.3791H29.3333C25.6514 43.3791 22.6666 40.3943 22.6666 36.7124V35.0458ZM27.6666 33.3791H29.3333V40.0458C27.4923 40.0458 26 38.5534 26 36.7124V35.0458C26 34.1253 26.7462 33.3791 27.6666 33.3791Z" fill="url(#paint2_linear)"/>
<path fill-rule="evenodd" clip-rule="evenodd" d="M59.3333 35.0458C59.3333 32.2844 57.0947 30.0458 54.3333 30.0458H49.3333V43.3791H52.6666C56.3485 43.3791 59.3333 40.3943 59.3333 36.7124V35.0458ZM54.3333 33.3791H52.6666V40.0458C54.5076 40.0458 56 38.5534 56 36.7124V35.0458C56 34.1253 55.2538 33.3791 54.3333 33.3791Z" fill="url(#paint3_linear)"/>
<path d="M41 46.7124C40.0796 46.7124 39.3334 47.4586 39.3334 48.3791V53.3791H36C35.0796 53.3791 34.3334 54.1253 34.3334 55.0457C34.3334 55.9662 35.0796 56.7124 36 56.7124H46C46.9205 56.7124 47.6667 55.9662 47.6667 55.0457C47.6667 54.1253 46.9205 53.3791 46 53.3791H42.6667V48.3791C42.6667 47.4586 41.9205 46.7124 41 46.7124Z" fill="url(#paint4_linear)"/>
<defs>
<linearGradient id="paint0_linear" x1="1.04122" y1="61.8098" x2="83.0371" y2="61.697" gradientUnits="userSpaceOnUse">
<stop stop-color="#DCAE4D"/>
<stop offset="1" stop-color="#D40F3E"/>
</linearGradient>
<linearGradient id="paint1_linear" x1="29.6261" y1="43.8884" x2="52.6771" y2="43.8567" gradientUnits="userSpaceOnUse">
<stop stop-color="#DCAE4D"/>
<stop offset="1" stop-color="#D40F3E"/>
</linearGradient>
<linearGradient id="paint2_linear" x1="23.1266" y1="39.8606" x2="59.3492" y2="39.7236" gradientUnits="userSpaceOnUse">
<stop stop-color="#DCAE4D"/>
<stop offset="1" stop-color="#D40F3E"/>
</linearGradient>
<linearGradient id="paint3_linear" x1="23.1266" y1="39.8606" x2="59.3492" y2="39.7236" gradientUnits="userSpaceOnUse">
<stop stop-color="#DCAE4D"/>
<stop offset="1" stop-color="#D40F3E"/>
</linearGradient>
<linearGradient id="paint4_linear" x1="34.5006" y1="54.0735" x2="47.6726" y2="54.0494" gradientUnits="userSpaceOnUse">
<stop stop-color="#DCAE4D"/>
<stop offset="1" stop-color="#D40F3E"/>
</linearGradient>
</defs>
</svg>
