<svg width="40" height="41" viewBox="0 0 40 41" fill="none" xmlns="http://www.w3.org/2000/svg">
<path fill-rule="evenodd" clip-rule="evenodd" d="M8.75004 9.87908C8.52903 9.87908 8.31707 9.96688 8.16079 10.1232C8.00451 10.2794 7.91671 10.4914 7.91671 10.7124C7.91671 10.9334 8.0045 11.1454 8.16079 11.3017C8.31707 11.4579 8.52903 11.5457 8.75004 11.5457H33.75C34.5236 11.5457 35.2655 11.853 35.8124 12.4C36.3594 12.947 36.6667 13.6889 36.6667 14.4624V31.9624C36.6667 32.736 36.3594 33.4778 35.8124 34.0248C35.2655 34.5718 34.5236 34.8791 33.75 34.8791H8.75004C7.64497 34.8791 6.58516 34.4401 5.80376 33.6587C5.02236 32.8773 4.58337 31.8175 4.58337 30.7124V10.7124C4.58337 9.60734 5.02236 8.54754 5.80376 7.76613C6.58516 6.98473 7.64497 6.54575 8.75004 6.54575H30C30.9205 6.54575 31.6667 7.29194 31.6667 8.21241C31.6667 9.13289 30.9205 9.87908 30 9.87908H8.75004ZM7.91671 14.7949V30.7124C7.91671 30.9334 8.0045 31.1454 8.16079 31.3017C8.31707 31.458 8.52903 31.5457 8.75004 31.5457H33.3334V14.8791H8.75004C8.46802 14.8791 8.18895 14.8505 7.91671 14.7949Z" fill="url(#paint0_linear)"/>
<path d="M27.5 25.7124C28.8807 25.7124 30 24.5931 30 23.2124C30 21.8317 28.8807 20.7124 27.5 20.7124C26.1193 20.7124 25 21.8317 25 23.2124C25 24.5931 26.1193 25.7124 27.5 25.7124Z" fill="url(#paint1_linear)"/>
<defs>
<linearGradient id="paint0_linear" x1="4.98585" y1="27.4023" x2="36.681" y2="27.3529" gradientUnits="userSpaceOnUse">
<stop stop-color="#DCAE4D"/>
<stop offset="1" stop-color="#D40F3E"/>
</linearGradient>
<linearGradient id="paint1_linear" x1="25.0627" y1="24.393" x2="30.0022" y2="24.3862" gradientUnits="userSpaceOnUse">
<stop stop-color="#DCAE4D"/>
<stop offset="1" stop-color="#D40F3E"/>
</linearGradient>
</defs>
</svg>
